<svg id="facebook" xmlns="http://www.w3.org/2000/svg" xmlns:xlink="http://www.w3.org/1999/xlink" width="35.872" height="35.876" viewBox="0 0 35.872 35.876">
  <defs>
    <clipPath id="clip-path">
      <rect id="Rectangle_6" data-name="Rectangle 6" width="35.872" height="35.876" fill="none"/>
    </clipPath>
  </defs>
  <g id="Group_769" data-name="Group 769" clip-path="url(#clip-path)">
    <path id="Path_4211" data-name="Path 4211" d="M17.9,35.874q-6.419,0-12.838,0A5.043,5.043,0,0,1,.006,30.85Q0,17.952.01,5.053A4.882,4.882,0,0,1,2.024,1,4.866,4.866,0,0,1,5.01.013q12.913-.02,25.826,0a4.9,4.9,0,0,1,4.822,3.6,5.075,5.075,0,0,1,.211,1.5q0,12.808,0,25.617A4.978,4.978,0,0,1,32.446,35.6a5.183,5.183,0,0,1-1.733.273q-6.4.007-12.808,0Zm7.06-10.419c0-2.065,0-4.129,0-6.194,0-.223.058-.288.285-.285.927.013,1.855,0,2.783.011.239,0,.321-.073.356-.313.159-1.093.344-2.181.515-3.272.081-.515.076-.516-.443-.517l-3.2,0c-.137,0-.292.027-.291-.194.006-.818-.026-1.637.02-2.453.043-.77.241-.985.856-1.16a1.605,1.605,0,0,1,.442-.06c.8,0,1.6-.01,2.394,0,.219,0,.3-.07.3-.292q-.011-1.735,0-3.471c0-.266-.1-.346-.354-.342-.668.011-1.337,0-2,0a15.993,15.993,0,0,0-2.625.118A4.6,4.6,0,0,0,20.97,8.622a5.479,5.479,0,0,0-1.065,3.266c-.045.9-.022,1.795-.011,2.693,0,.24-.075.312-.307.309-.788-.011-1.576,0-2.364-.009-.235,0-.336.062-.334.322q.018,1.75,0,3.5c0,.227.068.286.29.283.818-.013,1.636,0,2.454-.009.194,0,.278.052.256.253a3.043,3.043,0,0,0,0,.329q0,6,0,12c0,.408,0,.409.415.409,1.426,0,2.853-.009,4.279.005.3,0,.389-.075.387-.382-.014-2.045-.007-4.089-.007-6.134" transform="translate(0 0.001)" fill="#fff"/>
  </g>
</svg>
