<svg id="project_logo" data-name="project logo" xmlns="http://www.w3.org/2000/svg" xmlns:xlink="http://www.w3.org/1999/xlink" width="171.22" height="169.592" viewBox="0 0 171.22 169.592">
  <defs>
    <clipPath id="clip-path">
      <rect id="Rectangle_4" data-name="Rectangle 4" width="171.22" height="169.592" fill="none"/>
    </clipPath>
    <clipPath id="clip-path-2">
      <path id="Path_30" data-name="Path 30" d="M1.669,85.214c0,46.762,38.143,84.67,85.194,84.67s85.193-37.908,85.193-84.67S133.913.544,86.863.544,1.669,38.452,1.669,85.214" transform="translate(-1.669 -0.544)" fill="none"/>
    </clipPath>
  </defs>
  <path id="Path_8" data-name="Path 8" d="M81.754,119.732H86.5l2.265,11.19h.044l2.287-11.19h4.729v15.852H92.9V122.929h-.044l-2.82,12.655H87.548l-2.82-12.655h-.044v12.655H81.754Z" transform="translate(-43.941 -64.353)" fill="#fff"/>
  <path id="Path_9" data-name="Path 9" d="M125.988,119.732v2.62h-5.661v3.73h5.328v2.62h-5.328v4.263h5.883v2.62h-9.08V119.732Z" transform="translate(-62.955 -64.353)" fill="#fff"/>
  <path id="Path_10" data-name="Path 10" d="M141.558,119.732l2.087,6.128h.044l2.22-6.128h3.463l-4.107,9.614v6.239h-3.2v-6.239l-4.107-9.614Z" transform="translate(-74.151 -64.353)" fill="#fff"/>
  <g id="Group_5" data-name="Group 5">
    <g id="Group_4" data-name="Group 4" clip-path="url(#clip-path)">
      <path id="Path_11" data-name="Path 11" d="M165.513,119.731h5.239a5.712,5.712,0,0,1,2.686.545,3.865,3.865,0,0,1,1.587,1.554,6.915,6.915,0,0,1,.766,2.431,22.943,22.943,0,0,1,.2,3.175,22.49,22.49,0,0,1-.255,3.641,6.925,6.925,0,0,1-.876,2.53,3.845,3.845,0,0,1-1.666,1.488,6.231,6.231,0,0,1-2.642.489h-5.039Zm3.2,13.5h1.42a2.761,2.761,0,0,0,1.344-.289,1.962,1.962,0,0,0,.821-.955,5.569,5.569,0,0,0,.4-1.753q.1-1.089.1-2.709,0-1.355-.089-2.365a5.994,5.994,0,0,0-.366-1.7,2.123,2.123,0,0,0-.822-1.033,2.7,2.7,0,0,0-1.454-.343H168.71Z" transform="translate(-88.959 -64.353)" fill="#fff"/>
      <path id="Path_12" data-name="Path 12" d="M201.586,119.732v2.62h-5.661v3.73h5.328v2.62h-5.328v4.263h5.883v2.62h-9.08V119.732Z" transform="translate(-103.587 -64.353)" fill="#fff"/>
      <path id="Path_13" data-name="Path 13" d="M219.5,119.732l3.863,10.857h.044V119.732h2.931v15.852H222.7l-3.907-11.1h-.044v11.1h-2.931V119.732Z" transform="translate(-115.996 -64.353)" fill="#fff"/>
      <path id="Path_14" data-name="Path 14" d="M243.367,119.731h5.35a7.719,7.719,0,0,1,1.809.2,3.7,3.7,0,0,1,1.432.666,3.073,3.073,0,0,1,.933,1.243,4.859,4.859,0,0,1,.333,1.91,3.957,3.957,0,0,1-.6,2.209,3.013,3.013,0,0,1-1.8,1.255v.044a3.142,3.142,0,0,1,2.109,1.132,3.924,3.924,0,0,1,.777,2.553,6.376,6.376,0,0,1-.244,1.776,3.625,3.625,0,0,1-.833,1.477,4.157,4.157,0,0,1-1.532,1.01,6.326,6.326,0,0,1-2.342.378h-5.395Zm3.2,6.505h.911a3.167,3.167,0,0,0,1.943-.477,1.925,1.925,0,0,0,.61-1.61,1.989,1.989,0,0,0-.555-1.6,2.7,2.7,0,0,0-1.754-.466h-1.154Zm0,6.994h1.243a3.121,3.121,0,0,0,1.865-.511,2.181,2.181,0,0,0,.71-1.888,3.009,3.009,0,0,0-.189-1.142,1.917,1.917,0,0,0-.511-.733,1.828,1.828,0,0,0-.765-.389,4.032,4.032,0,0,0-.977-.111h-1.377Z" transform="translate(-130.804 -64.353)" fill="#fff"/>
      <path id="Path_15" data-name="Path 15" d="M271.851,119.732H275.8l4.2,15.852h-3.33l-.733-3.352h-4.218l-.733,3.352h-3.33Zm.422,9.88h3.108l-1.532-7.127H273.8Z" transform="translate(-143.858 -64.353)" fill="#fff"/>
      <path id="Path_16" data-name="Path 16" d="M299.507,119.732v11.056a7.178,7.178,0,0,0,.078,1.1,2.477,2.477,0,0,0,.289.865,1.553,1.553,0,0,0,.567.577,2.137,2.137,0,0,0,1.853,0,1.53,1.53,0,0,0,.577-.577,2.5,2.5,0,0,0,.289-.865,7.174,7.174,0,0,0,.078-1.1V119.732h3.2v11.056a6.4,6.4,0,0,1-.422,2.5,3.984,3.984,0,0,1-1.132,1.565,4.182,4.182,0,0,1-1.621.81,7.579,7.579,0,0,1-1.887.233,8.8,8.8,0,0,1-1.887-.2,3.758,3.758,0,0,1-2.753-2.321,6.663,6.663,0,0,1-.422-2.586V119.732Z" transform="translate(-159.26 -64.353)" fill="#fff"/>
      <path id="Path_17" data-name="Path 17" d="M331.425,119.732v2.62h-5.661v3.73h5.328v2.62h-5.328v4.263h5.883v2.62h-9.08V119.732Z" transform="translate(-173.372 -64.353)" fill="#fff"/>
      <path id="Path_18" data-name="Path 18" d="M345.655,119.731h5.905a4.45,4.45,0,0,1,3.108,1.011,3.954,3.954,0,0,1,1.11,3.074,4.78,4.78,0,0,1-.644,2.609,2.982,2.982,0,0,1-2,1.3v.044a3.368,3.368,0,0,1,1.31.411,1.97,1.97,0,0,1,.755.865,4.651,4.651,0,0,1,.366,1.432q.1.866.122,2.132a12.654,12.654,0,0,0,.145,1.931,1.21,1.21,0,0,0,.566.91v.134h-3.5a1.709,1.709,0,0,1-.315-.766,8.524,8.524,0,0,1-.09-.9l-.087-3.042a2.524,2.524,0,0,0-.461-1.465,1.677,1.677,0,0,0-1.4-.533h-1.689v6.7h-3.2Zm3.2,6.927h1.333a2.614,2.614,0,0,0,1.776-.544,2.329,2.329,0,0,0,.621-1.831,1.952,1.952,0,0,0-2.22-2.2h-1.51Z" transform="translate(-185.781 -64.353)" fill="#fff"/>
      <path id="Path_19" data-name="Path 19" d="M81.61,177.331h5.35a7.717,7.717,0,0,1,1.809.2,3.7,3.7,0,0,1,1.432.666,3.073,3.073,0,0,1,.933,1.243,4.86,4.86,0,0,1,.333,1.91,3.957,3.957,0,0,1-.6,2.209,3.012,3.012,0,0,1-1.8,1.255v.044a3.142,3.142,0,0,1,2.109,1.132,3.925,3.925,0,0,1,.777,2.553,6.374,6.374,0,0,1-.244,1.776,3.624,3.624,0,0,1-.833,1.477,4.157,4.157,0,0,1-1.532,1.01,6.326,6.326,0,0,1-2.342.378H81.61Zm3.2,6.505h.911a3.167,3.167,0,0,0,1.943-.477,1.925,1.925,0,0,0,.61-1.61,1.989,1.989,0,0,0-.555-1.6,2.7,2.7,0,0,0-1.754-.466H84.806Zm0,6.994H86.05a3.121,3.121,0,0,0,1.865-.511,2.181,2.181,0,0,0,.71-1.888,3.009,3.009,0,0,0-.189-1.142,1.918,1.918,0,0,0-.511-.733,1.828,1.828,0,0,0-.765-.389,4.031,4.031,0,0,0-.977-.111H84.806Z" transform="translate(-43.863 -95.311)" fill="#fff"/>
      <path id="Path_20" data-name="Path 20" d="M110.094,177.332h3.952l4.2,15.852h-3.33l-.733-3.352h-4.218l-.733,3.352H105.9Zm.422,9.88h3.108l-1.532-7.127h-.044Z" transform="translate(-56.918 -95.312)" fill="#fff"/>
      <path id="Path_21" data-name="Path 21" d="M133.686,177.331l2.087,6.128h.044l2.22-6.128H141.5l-4.107,9.614v6.238h-3.2v-6.238l-4.107-9.614Z" transform="translate(-69.92 -95.312)" fill="#fff"/>
      <path id="Path_22" data-name="Path 22" d="M168.824,177.331h5.595a4.614,4.614,0,0,1,2.053.411,3.761,3.761,0,0,1,1.343,1.077,4.207,4.207,0,0,1,.733,1.521,6.9,6.9,0,0,1,.222,1.743,5.664,5.664,0,0,1-.366,2.141,3.892,3.892,0,0,1-1.021,1.477,4.279,4.279,0,0,1-1.588.865,6.961,6.961,0,0,1-2.065.289h-1.71v6.327h-3.2Zm3.2,7.172h1.421a2.108,2.108,0,0,0,1.543-.577,2.426,2.426,0,0,0,.589-1.8,2.808,2.808,0,0,0-.511-1.82,2.094,2.094,0,0,0-1.709-.622H172.02Z" transform="translate(-90.739 -95.311)" fill="#fff"/>
      <path id="Path_23" data-name="Path 23" d="M192.941,177.332h3.952l4.2,15.852h-3.33l-.733-3.352h-4.218l-.733,3.352h-3.33Zm.422,9.88h3.108l-1.532-7.127h-.044Z" transform="translate(-101.446 -95.312)" fill="#fff"/>
      <path id="Path_24" data-name="Path 24" d="M217.833,177.331h5.905a4.45,4.45,0,0,1,3.108,1.011,3.954,3.954,0,0,1,1.11,3.074,4.78,4.78,0,0,1-.644,2.609,2.982,2.982,0,0,1-2,1.3v.044a3.369,3.369,0,0,1,1.31.411,1.97,1.97,0,0,1,.755.865,4.65,4.65,0,0,1,.366,1.432q.1.866.122,2.132a12.658,12.658,0,0,0,.145,1.931,1.21,1.21,0,0,0,.566.91v.134h-3.5a1.708,1.708,0,0,1-.315-.766,8.49,8.49,0,0,1-.09-.9l-.087-3.042a2.523,2.523,0,0,0-.461-1.465,1.677,1.677,0,0,0-1.4-.533h-1.689v6.7h-3.2Zm3.2,6.927h1.333a2.614,2.614,0,0,0,1.776-.544,2.328,2.328,0,0,0,.621-1.831,1.952,1.952,0,0,0-2.22-2.2h-1.51Z" transform="translate(-117.08 -95.311)" fill="#fff"/>
      <path id="Path_25" data-name="Path 25" d="M247.717,177.331v6.35h.045l4.04-6.35h3.463l-4.307,6.794,4.8,9.058h-3.6l-3.264-6.5-1.177,1.8v4.706h-3.2V177.331Z" transform="translate(-131.424 -95.312)" fill="#fff"/>
      <path id="Path_26" data-name="Path 26" d="M136.027,11.569a10.448,10.448,0,0,0-5.064,1.3A85.632,85.632,0,0,0,85.873,0C38.523,0,0,38.754,0,86.389A87.008,87.008,0,0,0,.631,96.851c.066.539.147,1.074.222,1.611a64.28,64.28,0,0,1,8.937-2.5c-.1-.785-.187-1.573-.261-2.365Q9.2,90.036,9.2,86.389C9.2,43.855,43.593,9.25,85.873,9.25a76.462,76.462,0,0,1,39.783,11.193,10.5,10.5,0,1,0,10.372-8.875" transform="translate(0 0)" fill="#fff"/>
    </g>
  </g>
  <g id="Group_7" data-name="Group 7" transform="translate(0.772 0.252)">
    <g id="Group_6" data-name="Group 6" clip-path="url(#clip-path-2)">
      <path id="Path_27" data-name="Path 27" d="M74.454,306.666a59.4,59.4,0,0,1-10.522-.94c-13.359-2.4-23.468-8.721-30.157-12.9-1.29-.807-2.4-1.5-3.376-2.067-7.6-4.407-16.628-7.081-24.154-7.152-1.5-.015-4.574,0-4.574,0l-.015-4.163s3.108-.011,4.629,0c8.214.078,18.01,2.962,26.2,7.714,1.033.6,2.174,1.313,3.495,2.139,12.612,7.886,38.855,24.3,74.456,1.728,19.714-12.5,39.887-13.215,61.672-2.194l-1.879,3.714c-20.364-10.3-39.193-9.65-57.564,1.995-12.729,8.07-25.541,12.13-38.212,12.13" transform="translate(-1.661 -150.44)" fill="#fff"/>
      <path id="Path_28" data-name="Path 28" d="M74.454,282.249a59.4,59.4,0,0,1-10.522-.941c-13.358-2.4-23.468-8.72-30.157-12.9-1.29-.807-2.4-1.5-3.376-2.067-7.6-4.407-16.628-7.081-24.154-7.152-1.5-.016-4.574,0-4.574,0l-.015-4.163s3.108-.011,4.629,0c8.214.078,18.01,2.962,26.2,7.714,1.033.6,2.174,1.313,3.494,2.139,12.612,7.887,38.855,24.3,74.457,1.728,19.714-12.5,39.887-13.216,61.672-2.194l-1.879,3.714c-20.365-10.3-39.193-9.651-57.564,1.995-12.729,8.07-25.541,12.13-38.212,12.13" transform="translate(-1.661 -137.316)" fill="#fff"/>
      <path id="Path_29" data-name="Path 29" d="M74.453,258.994a59.45,59.45,0,0,1-10.522-.941c-13.359-2.4-23.468-8.721-30.157-12.9-1.29-.806-2.4-1.5-3.376-2.067C22.8,238.675,13.77,236,6.243,235.93c-1.5-.014-4.572,0-4.574,0l-.016-4.163c.127,0,3.122-.011,4.63,0,8.214.078,18.01,2.962,26.2,7.714,1.032.6,2.173,1.312,3.494,2.139,12.612,7.887,38.855,24.3,74.457,1.728,19.715-12.5,39.888-13.214,61.672-2.193l-1.879,3.715c-20.365-10.3-39.193-9.651-57.564,1.994-12.729,8.07-25.541,12.13-38.213,12.131" transform="translate(-1.66 -124.817)" fill="#fff"/>
    </g>
  </g>
</svg>
