<svg id="twitter" xmlns="http://www.w3.org/2000/svg" xmlns:xlink="http://www.w3.org/1999/xlink" width="41.691" height="33.877" viewBox="0 0 41.691 33.877">
  <defs>
    <clipPath id="clip-path">
      <path id="Path_4195" data-name="Path 4195" d="M0-19.916H41.691V-53.793H0Z" transform="translate(0 53.793)" fill="#fff"/>
    </clipPath>
  </defs>
  <g id="Group_736" data-name="Group 736" transform="translate(0 0)" clip-path="url(#clip-path)">
    <g id="Group_735" data-name="Group 735" transform="translate(0 0)">
      <path id="Path_4194" data-name="Path 4194" d="M-22-4.961c.018.367.025.733.025,1.1,0,11.3-8.6,24.335-24.337,24.335a24.2,24.2,0,0,1-13.112-3.843,18.079,18.079,0,0,0,2.041.117,17.142,17.142,0,0,0,10.621-3.659,8.566,8.566,0,0,1-7.987-5.939,8.814,8.814,0,0,0,1.608.152,8.619,8.619,0,0,0,2.252-.3,8.563,8.563,0,0,1-6.861-8.385v-.106A8.547,8.547,0,0,0-53.877-.416a8.549,8.549,0,0,1-3.8-7.12,8.518,8.518,0,0,1,1.158-4.3A24.276,24.276,0,0,0-38.893-2.9a8.629,8.629,0,0,1-.222-1.949A8.552,8.552,0,0,1-30.56-13.4a8.553,8.553,0,0,1,6.242,2.7,17.067,17.067,0,0,0,5.433-2.076,8.58,8.58,0,0,1-3.761,4.733,17.064,17.064,0,0,0,4.911-1.343A17.332,17.332,0,0,1-22-4.961" transform="translate(59.426 13.399)" fill="#fff"/>
    </g>
  </g>
</svg>
